<svg width="501" height="501" viewBox="0 0 501 501" fill="none" xmlns="http://www.w3.org/2000/svg">
<path d="M94.6493 297.058C93.4943 297.058 92.3266 296.855 91.1843 296.436C85.9425 294.519 83.239 288.719 85.1555 283.477L119.932 158.142C120.985 155.261 123.295 153.015 126.202 152.037L234.758 118.048C237.043 117.273 239.53 117.35 241.751 118.251L401.495 182.651C406.242 184.567 408.805 189.72 407.473 194.67L367.848 355.15C366.388 360.544 360.842 363.73 355.448 362.27C350.053 360.81 346.868 355.264 348.327 349.87L385.604 198.059L237.639 138.406L137.219 169.654L104.118 290.432C102.62 294.532 98.7488 297.07 94.6239 297.07L94.6493 297.058Z" fill="#F7F8FA"/>
<path d="M297.798 246.175C296.541 246.175 295.285 245.946 294.079 245.464L125.705 170.999C120.514 168.943 117.975 163.079 120.019 157.888C122.075 152.697 127.939 150.146 133.13 152.202L303.128 225.03L393.294 182.93C398.307 180.48 404.361 182.574 406.798 187.588C409.235 192.601 407.153 198.655 402.14 201.092L302.215 245.134C300.819 245.807 299.308 246.149 297.785 246.149L297.798 246.175Z" fill="#F7F8FA"/>
<path d="M281.821 360.658C280.869 360.658 275.526 361.521 274.574 361.242C269.218 359.668 266.007 357.765 261.831 352.408L293.549 234.892C300.885 229.536 306.508 226.477 311.864 228.063C317.22 229.637 314.516 235.26 312.942 240.616L286.987 358.133C285.692 362.537 286.2 360.671 281.834 360.671L281.821 360.658Z" fill="#F7F8FA"/>
<path d="M9.34338 305.574C9.34338 305.574 91.4489 253.27 222.203 329.524C347.069 402.339 454.876 322.201 481.288 300.535" stroke="#F7F8FA" stroke-width="22.4397" stroke-miterlimit="10"/>
<circle cx="250.021" cy="250.021" r="238.392" stroke="#F7F8FA" stroke-width="23.2577"/>
</svg>
