<svg width="379" height="150" viewBox="0 0 379 150" fill="none" xmlns="http://www.w3.org/2000/svg">
<path d="M378.137 107.883H369.299C358.228 108.022 348.87 98.664 349.009 87.5924V39.3687H359.154V87.5924C359.154 90.4182 360.127 92.7808 362.119 94.7727C364.111 96.7647 366.474 97.7375 369.299 97.7375H378.137V107.883Z" fill="white"/>
<path d="M307.305 106.468C299.013 106.468 291.786 102.484 287.015 96.2298C282.336 102.484 275.063 106.468 266.725 106.468C252.92 106.606 241.154 94.8401 241.339 81.0817V37.9536H251.53V81.0817C251.53 85.2972 253.013 88.8642 255.978 91.829C258.942 94.7937 262.509 96.2761 266.725 96.2761C270.94 96.2761 274.507 94.7937 277.472 91.829C280.483 88.8642 281.966 85.2972 281.966 81.0817V37.9536H292.111V81.0817C292.111 85.2972 293.593 88.8642 296.558 91.829C299.569 94.7937 303.136 96.2761 307.305 96.2761C311.521 96.2761 315.088 94.7937 318.052 91.829C321.063 88.8642 322.546 85.2972 322.546 81.0817V37.9536H332.691V81.0817C332.876 94.8401 321.11 106.606 307.305 106.468Z" fill="white"/>
<path d="M204.839 37.0024C217.301 36.8171 227.863 47.3791 227.677 59.8404V105.516H217.532V93.1433H192.146V105.516H182.001V59.8404C181.862 47.3791 192.424 36.8171 204.839 37.0024ZM192.146 59.8404V82.9983H217.532V59.8404C217.532 56.366 216.281 53.3549 213.78 50.8997C211.325 48.3982 208.314 47.1475 204.839 47.1475C201.365 47.1475 198.354 48.3982 195.852 50.8997C193.397 53.3549 192.146 56.366 192.146 59.8404Z" fill="white"/>
<circle cx="75" cy="75" r="75" fill="#0C91DF"/>
<path d="M33.8967 85.3596L42.7239 52.0596L72.0002 41.8923L113.344 61.1128L103.039 104.85C103.039 104.85 84.402 107.875 62.3899 94.8584C40.3778 81.8389 33.8967 85.3596 33.8967 85.3596Z" fill="#0C91DF"/>
<path d="M33.6778 87.5098C33.3707 87.5098 33.0601 87.4558 32.7563 87.3444C31.3622 86.8347 30.6432 85.2921 31.1529 83.898L40.402 50.5642C40.6822 49.7979 41.2965 49.2005 42.0695 48.9405L70.9408 39.9008C71.5484 39.6949 72.21 39.7151 72.8007 39.9548L115.286 57.0824C116.548 57.5921 117.23 58.9626 116.876 60.2791L106.337 102.96C105.949 104.394 104.474 105.242 103.039 104.854C101.605 104.465 100.757 102.99 101.145 101.556L111.059 61.1804L71.7071 45.3152L44.9995 53.6258L36.196 85.7478C35.7977 86.8381 34.7682 87.5132 33.6711 87.5132L33.6778 87.5098Z" fill="#F7F8FA"/>
<path d="M87.7069 73.9772C87.3727 73.9772 87.0385 73.9165 86.7178 73.7882L41.9375 53.9837C40.5569 53.4368 39.8818 51.8773 40.4252 50.4967C40.9721 49.1161 42.5316 48.4376 43.9122 48.9845L89.1246 68.3535L113.105 57.1567C114.438 56.5052 116.048 57.0622 116.696 58.3956C117.344 59.7289 116.791 61.3391 115.457 61.9872L88.8816 73.7004C88.5103 73.8793 88.1086 73.9705 87.7035 73.9705L87.7069 73.9772Z" fill="#F7F8FA"/>
<path d="M83.4576 104.425C83.2045 104.425 81.7834 104.654 81.5302 104.58C80.1057 104.162 79.2517 103.655 78.1411 102.231L86.5767 70.9763C88.5278 69.5518 90.0231 68.7383 91.4476 69.1602C92.8721 69.5788 92.1531 71.0742 91.7345 72.4987L84.8315 103.753C84.4872 104.924 84.6222 104.428 83.461 104.428L83.4576 104.425Z" fill="#F7F8FA"/>
<path d="M10.9902 89.7749C10.9902 89.7749 32.8268 75.8642 67.602 96.1446C100.811 115.51 129.483 94.1969 136.508 88.4348" stroke="#F7F8FA" stroke-width="5.96801" stroke-miterlimit="10"/>
<circle cx="75.0002" cy="75" r="63.4021" stroke="#F7F8FA" stroke-width="6.18557"/>
</svg>
