<svg width="64" height="64" viewBox="0 0 64 64" fill="none" xmlns="http://www.w3.org/2000/svg">
<circle cx="32" cy="32" r="32" fill="#11103B"/>
<path d="M14.4619 36.4201L18.2282 22.212L30.7194 17.874L48.3595 26.0748L43.9624 44.736C43.9624 44.736 36.0109 46.0265 26.619 40.4729C17.2272 34.9179 14.4619 36.4201 14.4619 36.4201Z" fill="#11103B"/>
<path d="M14.3689 37.3373C14.2379 37.3373 14.1054 37.3143 13.9757 37.2668C13.3809 37.0493 13.0741 36.3911 13.2916 35.7963L17.2379 21.5739C17.3574 21.2469 17.6195 20.992 17.9494 20.8811L30.2678 17.0241C30.527 16.9363 30.8093 16.9449 31.0613 17.0472L49.1883 24.355C49.7269 24.5725 50.0178 25.1572 49.8666 25.7189L45.3702 43.9293C45.2045 44.5414 44.5752 44.9029 43.9631 44.7373C43.351 44.5717 42.9894 43.9423 43.1551 43.3302L47.3851 26.1034L30.5947 19.3343L19.1995 22.8802L15.4433 36.5855C15.2734 37.0507 14.8341 37.3388 14.366 37.3388L14.3689 37.3373Z" fill="#F7F8FA"/>
<path d="M37.4207 31.5634C37.2781 31.5634 37.1355 31.5375 36.9987 31.4828L17.8924 23.0329C17.3033 22.7995 17.0153 22.1342 17.2472 21.5451C17.4805 20.956 18.1459 20.6665 18.7349 20.8999L38.0256 29.164L48.2571 24.3867C48.826 24.1087 49.513 24.3464 49.7895 24.9153C50.066 25.4842 49.8298 26.1712 49.2609 26.4477L37.9219 31.4453C37.7634 31.5217 37.5921 31.5606 37.4192 31.5606L37.4207 31.5634Z" fill="#F7F8FA"/>
<path d="M35.6082 44.5542C35.5002 44.5542 34.8939 44.6522 34.7859 44.6205C34.1781 44.4419 33.8137 44.2258 33.3398 43.6181L36.939 30.2828C37.7715 29.6751 38.4095 29.328 39.0173 29.508C39.6251 29.6866 39.3183 30.3246 39.1397 30.9324L36.1944 44.2676C36.0475 44.7674 36.1051 44.5557 35.6097 44.5557L35.6082 44.5542Z" fill="#F7F8FA"/>
<path d="M4.68945 38.3036C4.68945 38.3036 14.0064 32.3684 28.8438 41.0214C43.0129 49.2841 55.2463 40.1904 58.2435 37.7319" stroke="#F7F8FA" stroke-width="3" stroke-miterlimit="10"/>
<circle cx="32" cy="32" r="26.8711" stroke="#F7F8FA" stroke-width="3"/>
</svg>
