<svg width="194" height="194" viewBox="0 0 194 194" fill="none" xmlns="http://www.w3.org/2000/svg">
<circle cx="97" cy="97" r="97" fill="#11103B"/>
<path d="M43.8398 110.398L55.2563 67.3303L93.1203 54.1807L146.592 79.0392L133.263 135.606C133.263 135.606 109.16 139.518 80.6911 122.683C52.2221 105.845 43.8398 110.398 43.8398 110.398Z" fill="url(#paint0_linear_302_133)"/>
<path d="M43.5567 113.179C43.1594 113.179 42.7577 113.11 42.3648 112.966C40.5618 112.306 39.6319 110.311 40.2911 108.508L52.2532 65.3964C52.6156 64.4054 53.4101 63.6327 54.4099 63.2965L91.7501 51.605C92.5359 51.3387 93.3916 51.3649 94.1556 51.6749L149.103 73.8267C150.736 74.4859 151.617 76.2584 151.159 77.961L137.529 133.161C137.027 135.017 135.119 136.113 133.264 135.611C131.408 135.109 130.313 133.201 130.815 131.345L143.637 79.1267L92.7411 58.6077L58.1994 69.3561L46.8135 110.901C46.2983 112.311 44.9668 113.184 43.5479 113.184L43.5567 113.179Z" fill="#F7F8FA"/>
<path d="M113.434 95.6772C113.002 95.6772 112.57 95.5986 112.155 95.4327L54.2389 69.8189C52.4533 69.1116 51.5802 67.0947 52.2831 65.3091C52.9903 63.5235 55.0073 62.646 56.7929 63.3532L115.268 88.4039L146.282 73.9227C148.006 73.0801 150.089 73.8005 150.927 75.5249C151.765 77.2494 151.049 79.3318 149.325 80.1701L114.953 95.3192C114.473 95.5506 113.954 95.6684 113.43 95.6684L113.434 95.6772Z" fill="#F7F8FA"/>
<path d="M107.939 135.056C107.611 135.056 105.773 135.353 105.446 135.257C103.603 134.716 102.499 134.061 101.062 132.218L111.972 91.7961C114.496 89.9537 116.43 88.9016 118.272 89.4473C120.115 89.9887 119.185 91.9227 118.643 93.765L109.715 134.187C109.27 135.702 109.445 135.061 107.943 135.061L107.939 135.056Z" fill="#F7F8FA"/>
<path d="M14.2139 116.109C14.2139 116.109 42.4558 98.1177 87.4317 124.347C130.382 149.393 167.464 121.828 176.55 114.376" stroke="#F7F8FA" stroke-width="7.71863" stroke-miterlimit="10"/>
<circle cx="97" cy="97" r="82" stroke="#F7F8FA" stroke-width="8"/>
<defs>
<linearGradient id="paint0_linear_302_133" x1="43.8398" y1="95.0877" x2="146.596" y2="95.0877" gradientUnits="userSpaceOnUse">
<stop stop-color="#6A90FF"/>
<stop offset="1" stop-color="#6AD7FF"/>
</linearGradient>
</defs>
</svg>
