<svg width="406" height="542" viewBox="0 0 406 542" fill="none" xmlns="http://www.w3.org/2000/svg">
<mask id="mask0_250_299" style="mask-type:alpha" maskUnits="userSpaceOnUse" x="0" y="0" width="406" height="323">
<path d="M0 30C0 13.4315 13.4315 0 30 0H375.439C392.008 0 405.439 13.4315 405.439 30V177.856C405.439 190.792 397.147 202.272 384.866 206.336L39.4265 320.67C20.0123 327.095 0 312.639 0 292.189V30Z" fill="#0C91DF"/>
<path d="M0 30C0 13.4315 13.4315 0 30 0H375.439C392.008 0 405.439 13.4315 405.439 30V177.856C405.439 190.792 397.147 202.272 384.866 206.336L39.4265 320.67C20.0123 327.095 0 312.639 0 292.189V30Z" fill="#0C91DF"/>
</mask>
<g mask="url(#mask0_250_299)">
<path d="M0 30C0 13.4315 13.4315 0 30 0H375.439C392.008 0 405.439 13.4315 405.439 30V163.219C405.439 176.155 397.147 187.635 384.866 191.7L39.4265 306.033C20.0123 312.459 0 298.002 0 277.552V30Z" fill="#0C91DF"/>
<path d="M0 30C0 13.4315 13.4315 0 30 0H375.439C392.008 0 405.439 13.4315 405.439 30V163.219C405.439 176.155 397.147 187.635 384.866 191.7L39.4265 306.033C20.0123 312.459 0 298.002 0 277.552V30Z" fill="#0C91DF"/>
<path opacity="0.07" d="M131.005 165.969L117.954 226.793L133.313 227.208L125.096 265.505L49.6299 249.313L54.8689 213.912L72.7656 217.752L77.3305 196.476L67.5686 194.382L71.3408 161.546L94.9609 158.236L131.005 165.969Z" fill="white"/>
</g>
<mask id="mask1_250_299" style="mask-type:alpha" maskUnits="userSpaceOnUse" x="0" y="217" width="405" height="325">
<path d="M405 512C405 528.569 391.569 542 375 542H30C13.4315 542 0 528.569 0 512V362.149C0 349.224 8.27833 337.752 20.5447 333.678L365.545 219.103C384.965 212.654 405 227.111 405 247.574V512Z" fill="white"/>
<path d="M405 512C405 528.569 391.569 542 375 542H30C13.4315 542 0 528.569 0 512V362.149C0 349.224 8.27833 337.752 20.5447 333.678L365.545 219.103C384.965 212.654 405 227.111 405 247.574V512Z" fill="white"/>
</mask>
<g mask="url(#mask1_250_299)">
<rect x="-47" y="206" width="532" height="349" fill="white"/>
</g>
</svg>
