<svg width="406" height="540" viewBox="0 0 406 540" fill="none" xmlns="http://www.w3.org/2000/svg">
<mask id="mask0_283_145" style="mask-type:alpha" maskUnits="userSpaceOnUse" x="0" y="266" width="405" height="274">
<path d="M0 510C0 526.569 13.4315 540 30 540H375C391.569 540 405 526.569 405 510V410.186C405 397.223 396.674 385.726 384.357 381.683L39.3575 268.421C19.9568 262.052 0 276.505 0 296.924L0 510Z" fill="white"/>
<path d="M0 510C0 526.569 13.4315 540 30 540H375C391.569 540 405 526.569 405 510V410.186C405 397.223 396.674 385.726 384.357 381.683L39.3575 268.421C19.9568 262.052 0 276.505 0 296.924L0 510Z" fill="white"/>
</mask>
<g mask="url(#mask0_283_145)">
<rect x="-47" y="256" width="532" height="371" fill="white"/>
</g>
<mask id="mask1_283_145" style="mask-type:alpha" maskUnits="userSpaceOnUse" x="0" y="0" width="406" height="356">
<path d="M405.44 30C405.44 13.4314 392.009 0 375.44 0H30.0004C13.4319 0 0.000434279 13.4315 0.000434279 30V211.521C0.000434279 224.457 8.29284 235.937 20.574 240.001L366.014 354.335C385.428 360.761 405.44 346.304 405.44 325.854V30Z" fill="#11103B"/>
<path d="M405.44 30C405.44 13.4314 392.009 0 375.44 0H30.0004C13.4319 0 0.000434279 13.4315 0.000434279 30V211.521C0.000434279 224.457 8.29284 235.937 20.574 240.001L366.014 354.335C385.428 360.761 405.44 346.304 405.44 325.854V30Z" fill="#11103B"/>
</mask>
<g mask="url(#mask1_283_145)">
<path d="M405.44 30C405.44 13.4314 392.009 0 375.44 0H30.0004C13.4319 0 0.000434279 13.4315 0.000434279 30V211.521C0.000434279 224.457 8.29284 235.937 20.574 240.001L366.014 354.335C385.428 360.761 405.44 346.304 405.44 325.854V30Z" fill="black"/>
<path d="M405.44 30C405.44 13.4314 392.009 0 375.44 0H30.0004C13.4319 0 0.000434279 13.4315 0.000434279 30V211.521C0.000434279 224.457 8.29284 235.937 20.574 240.001L366.014 354.335C385.428 360.761 405.44 346.304 405.44 325.854V30Z" fill="black"/>
<path opacity="0.07" d="M335.998 252.998C340.944 255.98 344.599 259.688 346.964 264.122C349.413 268.575 349.939 274.055 348.542 280.563C347.343 286.153 345.014 290.498 341.557 293.596C338.183 296.712 333.927 298.854 328.789 300.02C323.753 301.122 318.132 301.487 311.928 301.116C305.724 300.744 299.284 299.843 292.61 298.411C287.353 297.283 282.017 295.92 276.599 294.321C271.248 292.824 265.923 291.201 260.625 289.454L275.037 251.57C279.262 254.658 283.233 257.3 286.952 259.494C290.67 261.688 293.781 263.054 296.284 263.591C299.371 264.253 301.129 263.583 301.559 261.581C301.917 259.912 300.72 258.171 297.967 256.359C295.232 254.463 290.553 252.674 283.932 250.991L286.51 238.977C293.471 239.074 298.296 238.756 300.984 238.024C303.69 237.208 305.186 236.133 305.473 234.798C305.634 234.047 305.417 233.433 304.821 232.956C304.326 232.413 303.62 232.044 302.702 231.847C300.533 231.381 297.261 231.377 292.886 231.835C288.595 232.311 283.898 233.049 278.796 234.049L281.469 200.847C290.165 198.96 298.286 198.127 305.831 198.35C313.376 198.572 320.278 199.355 326.535 200.697C332.96 202.076 338.567 204.414 343.358 207.711C348.167 210.924 351.676 214.906 353.886 219.657C356.096 224.408 356.557 229.787 355.268 235.794C354.122 241.134 351.824 245.135 348.372 247.798C345.004 250.48 340.879 252.213 335.998 252.998Z" fill="white"/>
</g>
</svg>
