<svg width="1328" height="538" viewBox="0 0 1328 538" fill="none" xmlns="http://www.w3.org/2000/svg">
<g opacity="0.02">
<circle cx="51.5" cy="196.5" r="51.5" fill="#11103B"/>
<path d="M23.2754 203.613L29.3367 180.747L49.4398 173.766L77.8293 186.964L70.7528 216.997C70.7528 216.997 57.9557 219.074 42.8407 210.136C27.7257 201.196 23.2754 203.613 23.2754 203.613Z" fill="#11103B"/>
<path d="M23.1256 205.09C22.9147 205.09 22.7015 205.053 22.4928 204.976C21.5356 204.626 21.0418 203.567 21.3918 202.61L27.7429 179.72C27.9353 179.194 28.3571 178.784 28.8879 178.606L48.7129 172.398C49.1301 172.257 49.5844 172.271 49.99 172.435L79.163 184.196C80.0299 184.546 80.4981 185.487 80.2547 186.391L73.0183 215.699C72.7517 216.684 71.7388 217.266 70.7537 216.999C69.7686 216.733 69.1868 215.72 69.4534 214.735L76.261 187.01L49.239 176.116L30.8998 181.823L24.8548 203.88C24.5813 204.629 23.8743 205.092 23.121 205.092L23.1256 205.09Z" fill="#F7F8FA"/>
<path d="M60.2247 195.797C59.9952 195.797 59.7657 195.756 59.5455 195.667L28.7964 182.068C27.8483 181.693 27.3848 180.622 27.7579 179.674C28.1334 178.726 29.2043 178.26 30.1523 178.636L61.1982 191.936L77.6645 184.247C78.5801 183.8 79.6857 184.182 80.1307 185.098C80.5758 186.013 80.1956 187.119 79.2801 187.564L61.0313 195.607C60.7763 195.73 60.5005 195.793 60.2224 195.793L60.2247 195.797Z" fill="#F7F8FA"/>
<path d="M57.3069 216.705C57.1331 216.705 56.1573 216.862 55.9834 216.811C55.0053 216.524 54.4188 216.176 53.6562 215.198L59.4487 193.737C60.7884 192.758 61.8152 192.2 62.7934 192.49C63.7715 192.777 63.2778 193.804 62.9904 194.782L58.2503 216.243C58.0139 217.048 58.1066 216.707 57.3092 216.707L57.3069 216.705Z" fill="#F7F8FA"/>
<path d="M7.54688 206.645C7.54688 206.645 22.5413 197.093 46.4203 211.019C69.2237 224.317 88.9119 209.681 93.7354 205.725" stroke="#F7F8FA" stroke-width="5.96801" stroke-miterlimit="10"/>
<circle cx="51.4996" cy="196.5" r="42.567" stroke="#F7F8FA" stroke-width="6.18557"/>
</g>
<g opacity="0.02">
<circle cx="741.5" cy="199.5" r="51.5" fill="#11103B"/>
<path d="M713.275 206.613L719.337 183.747L739.44 176.766L767.829 189.964L760.753 219.997C760.753 219.997 747.956 222.074 732.841 213.136C717.726 204.196 713.275 206.613 713.275 206.613Z" fill="#11103B"/>
<path d="M713.126 208.09C712.915 208.09 712.701 208.053 712.493 207.976C711.536 207.626 711.042 206.567 711.392 205.61L717.743 182.72C717.935 182.194 718.357 181.784 718.888 181.606L738.713 175.398C739.13 175.257 739.584 175.271 739.99 175.435L769.163 187.196C770.03 187.546 770.498 188.487 770.255 189.391L763.018 218.699C762.752 219.684 761.739 220.266 760.754 219.999C759.769 219.733 759.187 218.72 759.453 217.735L766.261 190.01L739.239 179.116L720.9 184.823L714.855 206.88C714.581 207.629 713.874 208.092 713.121 208.092L713.126 208.09Z" fill="#F7F8FA"/>
<path d="M750.225 198.797C749.995 198.797 749.766 198.756 749.546 198.667L718.796 185.068C717.848 184.693 717.385 183.622 717.758 182.674C718.133 181.726 719.204 181.26 720.152 181.636L751.198 194.936L767.664 187.247C768.58 186.8 769.686 187.182 770.131 188.098C770.576 189.013 770.196 190.119 769.28 190.564L751.031 198.607C750.776 198.73 750.5 198.793 750.222 198.793L750.225 198.797Z" fill="#F7F8FA"/>
<path d="M747.307 219.705C747.133 219.705 746.157 219.862 745.983 219.811C745.005 219.524 744.419 219.176 743.656 218.198L749.449 196.737C750.788 195.758 751.815 195.2 752.793 195.49C753.772 195.777 753.278 196.804 752.99 197.782L748.25 219.243C748.014 220.048 748.107 219.707 747.309 219.707L747.307 219.705Z" fill="#F7F8FA"/>
<path d="M697.547 209.645C697.547 209.645 712.541 200.093 736.42 214.019C759.224 227.317 778.912 212.681 783.735 208.725" stroke="#F7F8FA" stroke-width="5.96801" stroke-miterlimit="10"/>
<circle cx="741.5" cy="199.5" r="42.567" stroke="#F7F8FA" stroke-width="6.18557"/>
</g>
<g opacity="0.02">
<circle cx="396.5" cy="198.5" r="51.5" fill="#11103B"/>
<path d="M368.275 205.613L374.337 182.747L394.44 175.766L422.829 188.964L415.753 218.997C415.753 218.997 402.956 221.074 387.841 212.136C372.726 203.196 368.275 205.613 368.275 205.613Z" fill="#11103B"/>
<path d="M368.126 207.09C367.915 207.09 367.701 207.053 367.493 206.976C366.536 206.626 366.042 205.567 366.392 204.61L372.743 181.72C372.935 181.194 373.357 180.784 373.888 180.606L393.713 174.398C394.13 174.257 394.584 174.271 394.99 174.435L424.163 186.196C425.03 186.546 425.498 187.487 425.255 188.391L418.018 217.699C417.752 218.684 416.739 219.266 415.754 218.999C414.769 218.733 414.187 217.72 414.453 216.735L421.261 189.01L394.239 178.116L375.9 183.823L369.855 205.88C369.581 206.629 368.874 207.092 368.121 207.092L368.126 207.09Z" fill="#F7F8FA"/>
<path d="M405.225 197.797C404.995 197.797 404.766 197.756 404.546 197.667L373.796 184.068C372.848 183.693 372.385 182.622 372.758 181.674C373.133 180.726 374.204 180.26 375.152 180.636L406.198 193.936L422.664 186.247C423.58 185.8 424.686 186.182 425.131 187.098C425.576 188.013 425.196 189.119 424.28 189.564L406.031 197.607C405.776 197.73 405.5 197.793 405.222 197.793L405.225 197.797Z" fill="#F7F8FA"/>
<path d="M402.307 218.705C402.133 218.705 401.157 218.862 400.983 218.811C400.005 218.524 399.419 218.176 398.656 217.198L404.449 195.737C405.788 194.758 406.815 194.2 407.793 194.49C408.772 194.777 408.278 195.804 407.99 196.782L403.25 218.243C403.014 219.048 403.107 218.707 402.309 218.707L402.307 218.705Z" fill="#F7F8FA"/>
<path d="M352.547 208.645C352.547 208.645 367.541 199.093 391.42 213.019C414.224 226.317 433.912 211.681 438.735 207.725" stroke="#F7F8FA" stroke-width="5.96801" stroke-miterlimit="10"/>
<circle cx="396.5" cy="198.5" r="42.567" stroke="#F7F8FA" stroke-width="6.18557"/>
</g>
<g opacity="0.02">
<circle cx="225.5" cy="57.5" r="51.5" fill="#11103B"/>
<path d="M197.275 64.6134L203.337 41.7474L223.44 34.7659L251.829 47.964L244.753 77.9969C244.753 77.9969 231.956 80.0737 216.841 71.1359C201.726 62.1958 197.275 64.6134 197.275 64.6134Z" fill="#11103B"/>
<path d="M197.126 66.0898C196.915 66.0898 196.701 66.0527 196.493 65.9762C195.536 65.6262 195.042 64.567 195.392 63.6097L201.743 40.7205C201.935 40.1943 202.357 39.7841 202.888 39.6056L222.713 33.3983C223.13 33.2569 223.584 33.2708 223.99 33.4353L253.163 45.1963C254.03 45.5463 254.498 46.4874 254.255 47.3914L247.018 76.6988C246.752 77.6839 245.739 78.2657 244.754 77.9992C243.769 77.7326 243.187 76.7197 243.453 75.7346L250.261 48.0103L223.239 37.1162L204.9 42.8228L198.855 64.8799C198.581 65.6286 197.874 66.0921 197.121 66.0921L197.126 66.0898Z" fill="#F7F8FA"/>
<path d="M234.225 56.7973C233.995 56.7973 233.766 56.7556 233.546 56.6675L202.796 43.0684C201.848 42.6929 201.385 41.622 201.758 40.674C202.133 39.726 203.204 39.2601 204.152 39.6356L235.198 52.9357L251.664 45.2472C252.58 44.7999 253.686 45.1823 254.131 46.0979C254.576 47.0135 254.196 48.1191 253.28 48.5641L235.031 56.6072C234.776 56.7301 234.5 56.7927 234.222 56.7927L234.225 56.7973Z" fill="#F7F8FA"/>
<path d="M231.307 77.7046C231.133 77.7046 230.157 77.8622 229.983 77.8112C229.005 77.5238 228.419 77.1761 227.656 76.198L233.449 54.7366C234.788 53.7585 235.815 53.1999 236.793 53.4896C237.772 53.777 237.278 54.8038 236.99 55.782L232.25 77.2434C232.014 78.0477 232.107 77.7069 231.309 77.7069L231.307 77.7046Z" fill="#F7F8FA"/>
<path d="M181.547 67.6449C181.547 67.6449 196.541 58.0929 220.42 72.0188C243.224 85.3165 262.912 70.6814 267.735 66.7247" stroke="#F7F8FA" stroke-width="5.96801" stroke-miterlimit="10"/>
<circle cx="225.5" cy="57.4999" r="42.567" stroke="#F7F8FA" stroke-width="6.18557"/>
</g>
<g opacity="0.02">
<circle cx="570.5" cy="51.5" r="51.5" fill="#11103B"/>
<path d="M542.275 58.6134L548.337 35.7474L568.44 28.7659L596.829 41.964L589.753 71.9969C589.753 71.9969 576.956 74.0737 561.841 65.1359C546.726 56.1958 542.275 58.6134 542.275 58.6134Z" fill="#11103B"/>
<path d="M542.126 60.0898C541.915 60.0898 541.701 60.0527 541.493 59.9762C540.536 59.6262 540.042 58.567 540.392 57.6097L546.743 34.7205C546.935 34.1943 547.357 33.7841 547.888 33.6056L567.713 27.3983C568.13 27.2569 568.584 27.2708 568.99 27.4353L598.163 39.1963C599.03 39.5463 599.498 40.4874 599.255 41.3914L592.018 70.6988C591.752 71.6839 590.739 72.2657 589.754 71.9992C588.769 71.7326 588.187 70.7197 588.453 69.7346L595.261 42.0103L568.239 31.1162L549.9 36.8228L543.855 58.8799C543.581 59.6286 542.874 60.0921 542.121 60.0921L542.126 60.0898Z" fill="#F7F8FA"/>
<path d="M579.225 50.7973C578.995 50.7973 578.766 50.7556 578.546 50.6675L547.796 37.0684C546.848 36.6929 546.385 35.622 546.758 34.674C547.133 33.726 548.204 33.2601 549.152 33.6356L580.198 46.9357L596.664 39.2472C597.58 38.7999 598.686 39.1823 599.131 40.0979C599.576 41.0135 599.196 42.1191 598.28 42.5641L580.031 50.6072C579.776 50.7301 579.5 50.7927 579.222 50.7927L579.225 50.7973Z" fill="#F7F8FA"/>
<path d="M576.307 71.7046C576.133 71.7046 575.157 71.8622 574.983 71.8112C574.005 71.5238 573.419 71.1761 572.656 70.198L578.449 48.7366C579.788 47.7585 580.815 47.1999 581.793 47.4896C582.772 47.777 582.278 48.8038 581.99 49.782L577.25 71.2434C577.014 72.0477 577.107 71.7069 576.309 71.7069L576.307 71.7046Z" fill="#F7F8FA"/>
<path d="M526.547 61.6449C526.547 61.6449 541.541 52.0929 565.42 66.0188C588.224 79.3165 607.912 64.6814 612.735 60.7247" stroke="#F7F8FA" stroke-width="5.96801" stroke-miterlimit="10"/>
<circle cx="570.5" cy="51.4999" r="42.567" stroke="#F7F8FA" stroke-width="6.18557"/>
</g>
<g opacity="0.02">
<circle cx="915.5" cy="51.5" r="51.5" fill="#11103B"/>
<path d="M887.275 58.6134L893.337 35.7474L913.44 28.7659L941.829 41.964L934.753 71.9969C934.753 71.9969 921.956 74.0737 906.841 65.1359C891.726 56.1958 887.275 58.6134 887.275 58.6134Z" fill="#11103B"/>
<path d="M887.126 60.0898C886.915 60.0898 886.701 60.0527 886.493 59.9762C885.536 59.6262 885.042 58.567 885.392 57.6097L891.743 34.7205C891.935 34.1943 892.357 33.7841 892.888 33.6056L912.713 27.3983C913.13 27.2569 913.584 27.2708 913.99 27.4353L943.163 39.1963C944.03 39.5463 944.498 40.4874 944.255 41.3914L937.018 70.6988C936.752 71.6839 935.739 72.2657 934.754 71.9992C933.769 71.7326 933.187 70.7197 933.453 69.7346L940.261 42.0103L913.239 31.1162L894.9 36.8228L888.855 58.8799C888.581 59.6286 887.874 60.0921 887.121 60.0921L887.126 60.0898Z" fill="#F7F8FA"/>
<path d="M924.225 50.7973C923.995 50.7973 923.766 50.7556 923.546 50.6675L892.796 37.0684C891.848 36.6929 891.385 35.622 891.758 34.674C892.133 33.726 893.204 33.2601 894.152 33.6356L925.198 46.9357L941.664 39.2472C942.58 38.7999 943.686 39.1823 944.131 40.0979C944.576 41.0135 944.196 42.1191 943.28 42.5641L925.031 50.6072C924.776 50.7301 924.5 50.7927 924.222 50.7927L924.225 50.7973Z" fill="#F7F8FA"/>
<path d="M921.307 71.7046C921.133 71.7046 920.157 71.8622 919.983 71.8112C919.005 71.5238 918.419 71.1761 917.656 70.198L923.449 48.7366C924.788 47.7585 925.815 47.1999 926.793 47.4896C927.772 47.777 927.278 48.8038 926.99 49.782L922.25 71.2434C922.014 72.0477 922.107 71.7069 921.309 71.7069L921.307 71.7046Z" fill="#F7F8FA"/>
<path d="M871.547 61.6449C871.547 61.6449 886.541 52.0929 910.42 66.0188C933.224 79.3165 952.912 64.6814 957.735 60.7247" stroke="#F7F8FA" stroke-width="5.96801" stroke-miterlimit="10"/>
<circle cx="915.5" cy="51.4999" r="42.567" stroke="#F7F8FA" stroke-width="6.18557"/>
</g>
<g opacity="0.02">
<circle cx="51.5" cy="483.5" r="51.5" fill="#11103B"/>
<path d="M23.2754 490.613L29.3367 467.747L49.4398 460.766L77.8293 473.964L70.7528 503.997C70.7528 503.997 57.9557 506.074 42.8407 497.136C27.7257 488.196 23.2754 490.613 23.2754 490.613Z" fill="#11103B"/>
<path d="M23.1256 492.09C22.9147 492.09 22.7015 492.053 22.4928 491.976C21.5356 491.626 21.0418 490.567 21.3918 489.61L27.7429 466.72C27.9353 466.194 28.3571 465.784 28.8879 465.606L48.7129 459.398C49.1301 459.257 49.5844 459.271 49.99 459.435L79.163 471.196C80.0299 471.546 80.4981 472.487 80.2547 473.391L73.0183 502.699C72.7517 503.684 71.7388 504.266 70.7537 503.999C69.7686 503.733 69.1868 502.72 69.4534 501.735L76.261 474.01L49.239 463.116L30.8998 468.823L24.8548 490.88C24.5813 491.629 23.8743 492.092 23.121 492.092L23.1256 492.09Z" fill="#F7F8FA"/>
<path d="M60.2247 482.797C59.9952 482.797 59.7657 482.756 59.5455 482.667L28.7964 469.068C27.8483 468.693 27.3848 467.622 27.7579 466.674C28.1334 465.726 29.2043 465.26 30.1523 465.636L61.1982 478.936L77.6645 471.247C78.5801 470.8 79.6857 471.182 80.1307 472.098C80.5758 473.013 80.1956 474.119 79.2801 474.564L61.0313 482.607C60.7763 482.73 60.5005 482.793 60.2224 482.793L60.2247 482.797Z" fill="#F7F8FA"/>
<path d="M57.3069 503.705C57.1331 503.705 56.1573 503.862 55.9834 503.811C55.0053 503.524 54.4188 503.176 53.6562 502.198L59.4487 480.737C60.7884 479.758 61.8152 479.2 62.7934 479.49C63.7715 479.777 63.2778 480.804 62.9904 481.782L58.2503 503.243C58.0139 504.048 58.1066 503.707 57.3092 503.707L57.3069 503.705Z" fill="#F7F8FA"/>
<path d="M7.54688 493.645C7.54688 493.645 22.5413 484.093 46.4203 498.019C69.2237 511.317 88.9119 496.681 93.7354 492.725" stroke="#F7F8FA" stroke-width="5.96801" stroke-miterlimit="10"/>
<circle cx="51.4996" cy="483.5" r="42.567" stroke="#F7F8FA" stroke-width="6.18557"/>
</g>
<g opacity="0.02">
<circle cx="741.5" cy="486.5" r="51.5" fill="#11103B"/>
<path d="M713.275 493.613L719.337 470.747L739.44 463.766L767.829 476.964L760.753 506.997C760.753 506.997 747.956 509.074 732.841 500.136C717.726 491.196 713.275 493.613 713.275 493.613Z" fill="#11103B"/>
<path d="M713.126 495.09C712.915 495.09 712.701 495.053 712.493 494.976C711.536 494.626 711.042 493.567 711.392 492.61L717.743 469.72C717.935 469.194 718.357 468.784 718.888 468.606L738.713 462.398C739.13 462.257 739.584 462.271 739.99 462.435L769.163 474.196C770.03 474.546 770.498 475.487 770.255 476.391L763.018 505.699C762.752 506.684 761.739 507.266 760.754 506.999C759.769 506.733 759.187 505.72 759.453 504.735L766.261 477.01L739.239 466.116L720.9 471.823L714.855 493.88C714.581 494.629 713.874 495.092 713.121 495.092L713.126 495.09Z" fill="#F7F8FA"/>
<path d="M750.225 485.797C749.995 485.797 749.766 485.756 749.546 485.667L718.796 472.068C717.848 471.693 717.385 470.622 717.758 469.674C718.133 468.726 719.204 468.26 720.152 468.636L751.198 481.936L767.664 474.247C768.58 473.8 769.686 474.182 770.131 475.098C770.576 476.013 770.196 477.119 769.28 477.564L751.031 485.607C750.776 485.73 750.5 485.793 750.222 485.793L750.225 485.797Z" fill="#F7F8FA"/>
<path d="M747.307 506.705C747.133 506.705 746.157 506.862 745.983 506.811C745.005 506.524 744.419 506.176 743.656 505.198L749.449 483.737C750.788 482.758 751.815 482.2 752.793 482.49C753.772 482.777 753.278 483.804 752.99 484.782L748.25 506.243C748.014 507.048 748.107 506.707 747.309 506.707L747.307 506.705Z" fill="#F7F8FA"/>
<path d="M697.547 496.645C697.547 496.645 712.541 487.093 736.42 501.019C759.224 514.317 778.912 499.681 783.735 495.725" stroke="#F7F8FA" stroke-width="5.96801" stroke-miterlimit="10"/>
<circle cx="741.5" cy="486.5" r="42.567" stroke="#F7F8FA" stroke-width="6.18557"/>
</g>
<g opacity="0.02">
<circle cx="396.5" cy="485.5" r="51.5" fill="#11103B"/>
<path d="M368.275 492.613L374.337 469.747L394.44 462.766L422.829 475.964L415.753 505.997C415.753 505.997 402.956 508.074 387.841 499.136C372.726 490.196 368.275 492.613 368.275 492.613Z" fill="#11103B"/>
<path d="M368.126 494.09C367.915 494.09 367.701 494.053 367.493 493.976C366.536 493.626 366.042 492.567 366.392 491.61L372.743 468.72C372.935 468.194 373.357 467.784 373.888 467.606L393.713 461.398C394.13 461.257 394.584 461.271 394.99 461.435L424.163 473.196C425.03 473.546 425.498 474.487 425.255 475.391L418.018 504.699C417.752 505.684 416.739 506.266 415.754 505.999C414.769 505.733 414.187 504.72 414.453 503.735L421.261 476.01L394.239 465.116L375.9 470.823L369.855 492.88C369.581 493.629 368.874 494.092 368.121 494.092L368.126 494.09Z" fill="#F7F8FA"/>
<path d="M405.225 484.797C404.995 484.797 404.766 484.756 404.546 484.667L373.796 471.068C372.848 470.693 372.385 469.622 372.758 468.674C373.133 467.726 374.204 467.26 375.152 467.636L406.198 480.936L422.664 473.247C423.58 472.8 424.686 473.182 425.131 474.098C425.576 475.013 425.196 476.119 424.28 476.564L406.031 484.607C405.776 484.73 405.5 484.793 405.222 484.793L405.225 484.797Z" fill="#F7F8FA"/>
<path d="M402.307 505.705C402.133 505.705 401.157 505.862 400.983 505.811C400.005 505.524 399.419 505.176 398.656 504.198L404.449 482.737C405.788 481.758 406.815 481.2 407.793 481.49C408.772 481.777 408.278 482.804 407.99 483.782L403.25 505.243C403.014 506.048 403.107 505.707 402.309 505.707L402.307 505.705Z" fill="#F7F8FA"/>
<path d="M352.547 495.645C352.547 495.645 367.541 486.093 391.42 500.019C414.224 513.317 433.912 498.681 438.735 494.725" stroke="#F7F8FA" stroke-width="5.96801" stroke-miterlimit="10"/>
<circle cx="396.5" cy="485.5" r="42.567" stroke="#F7F8FA" stroke-width="6.18557"/>
</g>
<g opacity="0.02">
<circle cx="225.5" cy="345.5" r="51.5" fill="#11103B"/>
<path d="M197.275 352.613L203.337 329.747L223.44 322.766L251.829 335.964L244.753 365.997C244.753 365.997 231.956 368.074 216.841 359.136C201.726 350.196 197.275 352.613 197.275 352.613Z" fill="#11103B"/>
<path d="M197.126 354.09C196.915 354.09 196.701 354.053 196.493 353.976C195.536 353.626 195.042 352.567 195.392 351.61L201.743 328.72C201.935 328.194 202.357 327.784 202.888 327.606L222.713 321.398C223.13 321.257 223.584 321.271 223.99 321.435L253.163 333.196C254.03 333.546 254.498 334.487 254.255 335.391L247.018 364.699C246.752 365.684 245.739 366.266 244.754 365.999C243.769 365.733 243.187 364.72 243.453 363.735L250.261 336.01L223.239 325.116L204.9 330.823L198.855 352.88C198.581 353.629 197.874 354.092 197.121 354.092L197.126 354.09Z" fill="#F7F8FA"/>
<path d="M234.225 344.797C233.995 344.797 233.766 344.756 233.546 344.667L202.796 331.068C201.848 330.693 201.385 329.622 201.758 328.674C202.133 327.726 203.204 327.26 204.152 327.636L235.198 340.936L251.664 333.247C252.58 332.8 253.686 333.182 254.131 334.098C254.576 335.013 254.196 336.119 253.28 336.564L235.031 344.607C234.776 344.73 234.5 344.793 234.222 344.793L234.225 344.797Z" fill="#F7F8FA"/>
<path d="M231.307 365.705C231.133 365.705 230.157 365.862 229.983 365.811C229.005 365.524 228.419 365.176 227.656 364.198L233.449 342.737C234.788 341.758 235.815 341.2 236.793 341.49C237.772 341.777 237.278 342.804 236.99 343.782L232.25 365.243C232.014 366.048 232.107 365.707 231.309 365.707L231.307 365.705Z" fill="#F7F8FA"/>
<path d="M181.547 355.645C181.547 355.645 196.541 346.093 220.42 360.019C243.224 373.317 262.912 358.681 267.735 354.725" stroke="#F7F8FA" stroke-width="5.96801" stroke-miterlimit="10"/>
<circle cx="225.5" cy="345.5" r="42.567" stroke="#F7F8FA" stroke-width="6.18557"/>
</g>
<g opacity="0.02">
<circle cx="570.5" cy="339.5" r="51.5" fill="#11103B"/>
<path d="M542.275 346.613L548.337 323.747L568.44 316.766L596.829 329.964L589.753 359.997C589.753 359.997 576.956 362.074 561.841 353.136C546.726 344.196 542.275 346.613 542.275 346.613Z" fill="#11103B"/>
<path d="M542.126 348.09C541.915 348.09 541.701 348.053 541.493 347.976C540.536 347.626 540.042 346.567 540.392 345.61L546.743 322.72C546.935 322.194 547.357 321.784 547.888 321.606L567.713 315.398C568.13 315.257 568.584 315.271 568.99 315.435L598.163 327.196C599.03 327.546 599.498 328.487 599.255 329.391L592.018 358.699C591.752 359.684 590.739 360.266 589.754 359.999C588.769 359.733 588.187 358.72 588.453 357.735L595.261 330.01L568.239 319.116L549.9 324.823L543.855 346.88C543.581 347.629 542.874 348.092 542.121 348.092L542.126 348.09Z" fill="#F7F8FA"/>
<path d="M579.225 338.797C578.995 338.797 578.766 338.756 578.546 338.667L547.796 325.068C546.848 324.693 546.385 323.622 546.758 322.674C547.133 321.726 548.204 321.26 549.152 321.636L580.198 334.936L596.664 327.247C597.58 326.8 598.686 327.182 599.131 328.098C599.576 329.013 599.196 330.119 598.28 330.564L580.031 338.607C579.776 338.73 579.5 338.793 579.222 338.793L579.225 338.797Z" fill="#F7F8FA"/>
<path d="M576.307 359.705C576.133 359.705 575.157 359.862 574.983 359.811C574.005 359.524 573.419 359.176 572.656 358.198L578.449 336.737C579.788 335.758 580.815 335.2 581.793 335.49C582.772 335.777 582.278 336.804 581.99 337.782L577.25 359.243C577.014 360.048 577.107 359.707 576.309 359.707L576.307 359.705Z" fill="#F7F8FA"/>
<path d="M526.547 349.645C526.547 349.645 541.541 340.093 565.42 354.019C588.224 367.317 607.912 352.681 612.735 348.725" stroke="#F7F8FA" stroke-width="5.96801" stroke-miterlimit="10"/>
<circle cx="570.5" cy="339.5" r="42.567" stroke="#F7F8FA" stroke-width="6.18557"/>
</g>
<g opacity="0.02">
<circle cx="915.5" cy="339.5" r="51.5" fill="#11103B"/>
<path d="M887.275 346.613L893.337 323.747L913.44 316.766L941.829 329.964L934.753 359.997C934.753 359.997 921.956 362.074 906.841 353.136C891.726 344.196 887.275 346.613 887.275 346.613Z" fill="#11103B"/>
<path d="M887.126 348.09C886.915 348.09 886.701 348.053 886.493 347.976C885.536 347.626 885.042 346.567 885.392 345.61L891.743 322.72C891.935 322.194 892.357 321.784 892.888 321.606L912.713 315.398C913.13 315.257 913.584 315.271 913.99 315.435L943.163 327.196C944.03 327.546 944.498 328.487 944.255 329.391L937.018 358.699C936.752 359.684 935.739 360.266 934.754 359.999C933.769 359.733 933.187 358.72 933.453 357.735L940.261 330.01L913.239 319.116L894.9 324.823L888.855 346.88C888.581 347.629 887.874 348.092 887.121 348.092L887.126 348.09Z" fill="#F7F8FA"/>
<path d="M924.225 338.797C923.995 338.797 923.766 338.756 923.546 338.667L892.796 325.068C891.848 324.693 891.385 323.622 891.758 322.674C892.133 321.726 893.204 321.26 894.152 321.636L925.198 334.936L941.664 327.247C942.58 326.8 943.686 327.182 944.131 328.098C944.576 329.013 944.196 330.119 943.28 330.564L925.031 338.607C924.776 338.73 924.5 338.793 924.222 338.793L924.225 338.797Z" fill="#F7F8FA"/>
<path d="M921.307 359.705C921.133 359.705 920.157 359.862 919.983 359.811C919.005 359.524 918.419 359.176 917.656 358.198L923.449 336.737C924.788 335.758 925.815 335.2 926.793 335.49C927.772 335.777 927.278 336.804 926.99 337.782L922.25 359.243C922.014 360.048 922.107 359.707 921.309 359.707L921.307 359.705Z" fill="#F7F8FA"/>
<path d="M871.547 349.645C871.547 349.645 886.541 340.093 910.42 354.019C933.224 367.317 952.912 352.681 957.735 348.725" stroke="#F7F8FA" stroke-width="5.96801" stroke-miterlimit="10"/>
<circle cx="915.5" cy="339.5" r="42.567" stroke="#F7F8FA" stroke-width="6.18557"/>
</g>
<g opacity="0.02">
<circle cx="1102.5" cy="196.5" r="51.5" fill="#11103B"/>
<path d="M1074.28 203.613L1080.34 180.747L1100.44 173.766L1128.83 186.964L1121.75 216.997C1121.75 216.997 1108.96 219.074 1093.84 210.136C1078.73 201.196 1074.28 203.613 1074.28 203.613Z" fill="#11103B"/>
<path d="M1074.13 205.09C1073.91 205.09 1073.7 205.053 1073.49 204.976C1072.54 204.626 1072.04 203.567 1072.39 202.61L1078.74 179.72C1078.94 179.194 1079.36 178.784 1079.89 178.606L1099.71 172.398C1100.13 172.257 1100.58 172.271 1100.99 172.435L1130.16 184.196C1131.03 184.546 1131.5 185.487 1131.25 186.391L1124.02 215.699C1123.75 216.684 1122.74 217.266 1121.75 216.999C1120.77 216.733 1120.19 215.72 1120.45 214.735L1127.26 187.01L1100.24 176.116L1081.9 181.823L1075.85 203.88C1075.58 204.629 1074.87 205.092 1074.12 205.092L1074.13 205.09Z" fill="#F7F8FA"/>
<path d="M1111.22 195.797C1111 195.797 1110.77 195.756 1110.55 195.667L1079.8 182.068C1078.85 181.693 1078.38 180.622 1078.76 179.674C1079.13 178.726 1080.2 178.26 1081.15 178.636L1112.2 191.936L1128.66 184.247C1129.58 183.8 1130.69 184.182 1131.13 185.098C1131.58 186.013 1131.2 187.119 1130.28 187.564L1112.03 195.607C1111.78 195.73 1111.5 195.793 1111.22 195.793L1111.22 195.797Z" fill="#F7F8FA"/>
<path d="M1108.31 216.705C1108.13 216.705 1107.16 216.862 1106.98 216.811C1106.01 216.524 1105.42 216.176 1104.66 215.198L1110.45 193.737C1111.79 192.758 1112.82 192.2 1113.79 192.49C1114.77 192.777 1114.28 193.804 1113.99 194.782L1109.25 216.243C1109.01 217.048 1109.11 216.707 1108.31 216.707L1108.31 216.705Z" fill="#F7F8FA"/>
<path d="M1058.55 206.645C1058.55 206.645 1073.54 197.093 1097.42 211.019C1120.22 224.317 1139.91 209.681 1144.74 205.725" stroke="#F7F8FA" stroke-width="5.96801" stroke-miterlimit="10"/>
<circle cx="1102.5" cy="196.5" r="42.567" stroke="#F7F8FA" stroke-width="6.18557"/>
</g>
<g opacity="0.02">
<circle cx="1276.5" cy="57.5" r="51.5" fill="#11103B"/>
<path d="M1248.28 64.6134L1254.34 41.7474L1274.44 34.7659L1302.83 47.964L1295.75 77.9969C1295.75 77.9969 1282.96 80.0737 1267.84 71.1359C1252.73 62.1958 1248.28 64.6134 1248.28 64.6134Z" fill="#11103B"/>
<path d="M1248.13 66.0898C1247.91 66.0898 1247.7 66.0527 1247.49 65.9762C1246.54 65.6262 1246.04 64.567 1246.39 63.6097L1252.74 40.7205C1252.94 40.1943 1253.36 39.7841 1253.89 39.6056L1273.71 33.3983C1274.13 33.2569 1274.58 33.2708 1274.99 33.4353L1304.16 45.1963C1305.03 45.5463 1305.5 46.4874 1305.25 47.3914L1298.02 76.6988C1297.75 77.6839 1296.74 78.2657 1295.75 77.9992C1294.77 77.7326 1294.19 76.7197 1294.45 75.7346L1301.26 48.0103L1274.24 37.1162L1255.9 42.8228L1249.85 64.8799C1249.58 65.6286 1248.87 66.0921 1248.12 66.0921L1248.13 66.0898Z" fill="#F7F8FA"/>
<path d="M1285.22 56.7973C1285 56.7973 1284.77 56.7556 1284.55 56.6675L1253.8 43.0684C1252.85 42.6929 1252.38 41.622 1252.76 40.674C1253.13 39.726 1254.2 39.2601 1255.15 39.6356L1286.2 52.9357L1302.66 45.2472C1303.58 44.7999 1304.69 45.1823 1305.13 46.0979C1305.58 47.0135 1305.2 48.1191 1304.28 48.5641L1286.03 56.6072C1285.78 56.7301 1285.5 56.7927 1285.22 56.7927L1285.22 56.7973Z" fill="#F7F8FA"/>
<path d="M1282.31 77.7046C1282.13 77.7046 1281.16 77.8622 1280.98 77.8112C1280.01 77.5238 1279.42 77.1761 1278.66 76.198L1284.45 54.7366C1285.79 53.7585 1286.82 53.1999 1287.79 53.4896C1288.77 53.777 1288.28 54.8038 1287.99 55.782L1283.25 77.2434C1283.01 78.0477 1283.11 77.7069 1282.31 77.7069L1282.31 77.7046Z" fill="#F7F8FA"/>
<path d="M1232.55 67.6449C1232.55 67.6449 1247.54 58.0929 1271.42 72.0188C1294.22 85.3165 1313.91 70.6814 1318.74 66.7247" stroke="#F7F8FA" stroke-width="5.96801" stroke-miterlimit="10"/>
<circle cx="1276.5" cy="57.4999" r="42.567" stroke="#F7F8FA" stroke-width="6.18557"/>
</g>
<g opacity="0.02">
<circle cx="1102.5" cy="483.5" r="51.5" fill="#11103B"/>
<path d="M1074.28 490.613L1080.34 467.747L1100.44 460.766L1128.83 473.964L1121.75 503.997C1121.75 503.997 1108.96 506.074 1093.84 497.136C1078.73 488.196 1074.28 490.613 1074.28 490.613Z" fill="#11103B"/>
<path d="M1074.13 492.09C1073.91 492.09 1073.7 492.053 1073.49 491.976C1072.54 491.626 1072.04 490.567 1072.39 489.61L1078.74 466.72C1078.94 466.194 1079.36 465.784 1079.89 465.606L1099.71 459.398C1100.13 459.257 1100.58 459.271 1100.99 459.435L1130.16 471.196C1131.03 471.546 1131.5 472.487 1131.25 473.391L1124.02 502.699C1123.75 503.684 1122.74 504.266 1121.75 503.999C1120.77 503.733 1120.19 502.72 1120.45 501.735L1127.26 474.01L1100.24 463.116L1081.9 468.823L1075.85 490.88C1075.58 491.629 1074.87 492.092 1074.12 492.092L1074.13 492.09Z" fill="#F7F8FA"/>
<path d="M1111.22 482.797C1111 482.797 1110.77 482.756 1110.55 482.667L1079.8 469.068C1078.85 468.693 1078.38 467.622 1078.76 466.674C1079.13 465.726 1080.2 465.26 1081.15 465.636L1112.2 478.936L1128.66 471.247C1129.58 470.8 1130.69 471.182 1131.13 472.098C1131.58 473.013 1131.2 474.119 1130.28 474.564L1112.03 482.607C1111.78 482.73 1111.5 482.793 1111.22 482.793L1111.22 482.797Z" fill="#F7F8FA"/>
<path d="M1108.31 503.705C1108.13 503.705 1107.16 503.862 1106.98 503.811C1106.01 503.524 1105.42 503.176 1104.66 502.198L1110.45 480.737C1111.79 479.758 1112.82 479.2 1113.79 479.49C1114.77 479.777 1114.28 480.804 1113.99 481.782L1109.25 503.243C1109.01 504.048 1109.11 503.707 1108.31 503.707L1108.31 503.705Z" fill="#F7F8FA"/>
<path d="M1058.55 493.645C1058.55 493.645 1073.54 484.093 1097.42 498.019C1120.22 511.317 1139.91 496.681 1144.74 492.725" stroke="#F7F8FA" stroke-width="5.96801" stroke-miterlimit="10"/>
<circle cx="1102.5" cy="483.5" r="42.567" stroke="#F7F8FA" stroke-width="6.18557"/>
</g>
<g opacity="0.02">
<circle cx="1276.5" cy="344.5" r="51.5" fill="#11103B"/>
<path d="M1248.28 351.613L1254.34 328.747L1274.44 321.766L1302.83 334.964L1295.75 364.997C1295.75 364.997 1282.96 367.074 1267.84 358.136C1252.73 349.196 1248.28 351.613 1248.28 351.613Z" fill="#11103B"/>
<path d="M1248.13 353.09C1247.91 353.09 1247.7 353.053 1247.49 352.976C1246.54 352.626 1246.04 351.567 1246.39 350.61L1252.74 327.72C1252.94 327.194 1253.36 326.784 1253.89 326.606L1273.71 320.398C1274.13 320.257 1274.58 320.271 1274.99 320.435L1304.16 332.196C1305.03 332.546 1305.5 333.487 1305.25 334.391L1298.02 363.699C1297.75 364.684 1296.74 365.266 1295.75 364.999C1294.77 364.733 1294.19 363.72 1294.45 362.735L1301.26 335.01L1274.24 324.116L1255.9 329.823L1249.85 351.88C1249.58 352.629 1248.87 353.092 1248.12 353.092L1248.13 353.09Z" fill="#F7F8FA"/>
<path d="M1285.22 343.797C1285 343.797 1284.77 343.756 1284.55 343.667L1253.8 330.068C1252.85 329.693 1252.38 328.622 1252.76 327.674C1253.13 326.726 1254.2 326.26 1255.15 326.636L1286.2 339.936L1302.66 332.247C1303.58 331.8 1304.69 332.182 1305.13 333.098C1305.58 334.013 1305.2 335.119 1304.28 335.564L1286.03 343.607C1285.78 343.73 1285.5 343.793 1285.22 343.793L1285.22 343.797Z" fill="#F7F8FA"/>
<path d="M1282.31 364.705C1282.13 364.705 1281.16 364.862 1280.98 364.811C1280.01 364.524 1279.42 364.176 1278.66 363.198L1284.45 341.737C1285.79 340.758 1286.82 340.2 1287.79 340.49C1288.77 340.777 1288.28 341.804 1287.99 342.782L1283.25 364.243C1283.01 365.048 1283.11 364.707 1282.31 364.707L1282.31 364.705Z" fill="#F7F8FA"/>
<path d="M1232.55 354.645C1232.55 354.645 1247.54 345.093 1271.42 359.019C1294.22 372.317 1313.91 357.681 1318.74 353.725" stroke="#F7F8FA" stroke-width="5.96801" stroke-miterlimit="10"/>
<circle cx="1276.5" cy="344.5" r="42.567" stroke="#F7F8FA" stroke-width="6.18557"/>
</g>
</svg>
