<svg width="407" height="542" viewBox="0 0 407 542" fill="none" xmlns="http://www.w3.org/2000/svg">
<mask id="mask0_283_133" style="mask-type:alpha" maskUnits="userSpaceOnUse" x="0" y="0" width="407" height="352">
<path d="M406.398 30C406.398 13.4315 392.967 0 376.398 0L30.9584 0C14.3899 0 0.958442 13.4315 0.958442 30L0.958442 204.685C0.958442 217.558 9.17147 228.996 21.3694 233.111L366.809 349.639C386.255 356.198 406.398 341.734 406.398 321.212L406.398 30Z" fill="white"/>
<path d="M406.398 30C406.398 13.4315 392.967 0 376.398 0L30.9584 0C14.3899 0 0.958442 13.4315 0.958442 30L0.958442 204.685C0.958442 217.558 9.17147 228.996 21.3694 233.111L366.809 349.639C386.255 356.198 406.398 341.734 406.398 321.212L406.398 30Z" fill="white"/>
</mask>
<g mask="url(#mask0_283_133)">
<rect x="-46" width="532" height="371" fill="white"/>
</g>
<mask id="mask1_283_133" style="mask-type:alpha" maskUnits="userSpaceOnUse" x="1" y="258" width="405" height="284">
<path d="M1 512C1 528.569 14.4315 542 31 542L376 542C392.569 542 406 528.569 406 512L406 405.047C406 392.171 397.783 380.731 385.582 376.618L40.5816 260.34C21.1375 253.787 1 268.25 1 288.769L1 512Z" fill="#11103B"/>
<path d="M1 512C1 528.569 14.4315 542 31 542L376 542C392.569 542 406 528.569 406 512L406 405.047C406 392.171 397.783 380.731 385.582 376.618L40.5816 260.34C21.1375 253.787 1 268.25 1 288.769L1 512Z" fill="#11103B"/>
</mask>
<g mask="url(#mask1_283_133)">
<path d="M1.00205 511.562C1.002 528.131 14.4335 541.562 31.0021 541.562L376.442 541.563C393.011 541.563 406.442 528.131 406.442 511.563L406.443 405.763C406.443 392.901 398.245 381.471 386.062 377.347L40.6219 260.411C21.1707 253.827 1.00286 268.292 1.00279 288.827L1.00205 511.562Z" fill="#11103B"/>
<path d="M1.00205 511.562C1.002 528.131 14.4335 541.562 31.0021 541.562L376.442 541.563C393.011 541.563 406.442 528.131 406.442 511.563L406.443 405.763C406.443 392.901 398.245 381.471 386.062 377.347L40.6219 260.411C21.1707 253.827 1.00286 268.292 1.00279 288.827L1.00205 511.562Z" fill="#11103B"/>
<path opacity="0.07" d="M42.0731 329.617L25.4829 296.179C31.6368 290.673 37.6868 286.057 43.6331 282.332C49.6603 278.58 55.3815 275.787 60.797 273.954C72.3553 270.041 82.1486 269.564 90.177 272.521C98.2862 275.452 104.092 282.09 107.594 292.436C109.127 296.962 109.847 300.953 109.755 304.407C109.744 307.834 109.138 310.968 107.937 313.807C106.709 316.565 105.021 319.298 102.875 322.007C100.783 324.607 98.394 327.398 95.7095 330.379L96.4483 332.561L118.689 319.221L131.249 356.321L55.9579 381.809L41.0519 344.963C49.6205 336.477 56.0391 329.889 60.3078 325.201C64.5766 320.513 66.3558 317.253 65.6457 315.421C65.2352 314.208 64.1813 313.89 62.4839 314.464C61.2715 314.875 59.5897 315.894 57.4385 317.524C55.3408 319.045 52.9478 320.891 50.2594 323.062C47.6519 325.206 44.9231 327.391 42.0731 329.617Z" fill="white"/>
</g>
</svg>
